<svg id="Layer_1" data-name="Layer 1" xmlns="http://www.w3.org/2000/svg" viewBox="0 0 666.59987 118.22359"><defs><style>.cls-1{fill:#333;}</style></defs><path class="cls-1" d="M55.43781,2.27256c-.07575,0-.14945.00013-.2252.00042.12162-.00045.24273.00209.36435.00238C55.53058,2.27527,55.48445,2.27256,55.43781,2.27256Z" transform="translate(-1.8144 -1.47627)"/><path class="cls-1" d="M68.86979,35.38762V61.81153H83.04l-.00166-7.92483h8.42653C89.12932,65.97224,77.11146,74.33234,61.8683,74.33234c-1.04177,0-2.10132-.041-3.14928-.12188-8.43544-.65088-16.19526-3.36942-21.85041-7.65491-6.23259-4.72315-9.50967-11.041-9.47721-18.27046A26.97692,26.97692,0,0,1,36.689,28.02581,34.54866,34.54866,0,0,1,58.13075,19.642c.50813-.0219,1.02657-.033,1.54089-.033A44.37979,44.37979,0,0,1,87.01306,29.61636c.38547.31984.477.38677.572.45218.04329.0297.10255.07045.54266.4385l.22031.1843.2873.0001,15.98449.00554V2.14816H88.12723V10.4139C81.1814,5.96569,69.30448,1.48141,55.43781,1.481l-.22829.00042A57.14584,57.14584,0,0,0,14.9172,18.40463C6.33231,27.13191,1.67977,37.80627,1.81736,48.46143c.1492,11.45633,5.66907,22.12915,15.54309,30.0524C26.80906,86.096,39.61386,90.4446,52.49132,90.4446c1.59165,0,3.20236-.06545,4.78757-.19451,12.75275-1.03723,24.05815-3.94584,32.04446-8.22534l-.026,3.52336h17.51738V53.90242h5.49255V90.60233h-9.126v16.50678h40.73552V90.60233h-9.1291V53.8867h22.06686v7.92483h14.24261V35.38762ZM55.43781,2.27256c.04664,0,.09277.00271.13915.0028-.12162-.00029-.24273-.00283-.36435-.00238C55.28836,2.27269,55.36206,2.27256,55.43781,2.27256Z" transform="translate(-1.8144 -1.47627)"/><path class="cls-1" d="M427.74007,73.628a10.53032,10.53032,0,0,1,8.18383,3.368,12.41373,12.41373,0,0,1,3.06429,8.68891v14.1448a.35738.35738,0,0,0,.405.40385h2.76057a.59611.59611,0,0,1,.67383.67383v5.25339a.59566.59566,0,0,1-.67383.67383H428.14392a.59566.59566,0,0,1-.67383-.67383v-5.25339a.59611.59611,0,0,1,.67383-.67383h2.89668a.357.357,0,0,0,.40385-.40385V87.43591a7.96752,7.96752,0,0,0-1.549-5.15272,6.22417,6.22417,0,0,0-8.99152,0,7.84517,7.84517,0,0,0-1.5839,5.15272V99.82976a.35738.35738,0,0,0,.405.40385h2.89555a.59611.59611,0,0,1,.67383.67383v5.25339a.59566.59566,0,0,1-.67383.67383h-14.1448a.59486.59486,0,0,1-.6727-.67383v-5.25339a.59531.59531,0,0,1,.6727-.67383h2.89668a.35658.35658,0,0,0,.40385-.40385V81.37425a.357.357,0,0,0-.40385-.40441h-2.89668a.59447.59447,0,0,1-.6727-.67327v-5.254a.59491.59491,0,0,1,.6727-.67327h10.17157a.59536.59536,0,0,1,.6727.67327v2.35727h.0675Q422.01478,73.62859,427.74007,73.628Z" transform="translate(-1.8144 -1.47627)"/><path class="cls-1" d="M460.724,73.628a14.885,14.885,0,0,1,8.45268,2.35784,12.06031,12.06031,0,0,1,4.88329,6.6005,26.05889,26.05889,0,0,1,1.07768,8.01565A26.04251,26.04251,0,0,1,474.06,98.61709a12.0576,12.0576,0,0,1-4.88329,6.60106,16.45441,16.45441,0,0,1-16.97286,0,12.05233,12.05233,0,0,1-4.8833-6.60106,26.00882,26.00882,0,0,1-1.07767-8.01508,26.02517,26.02517,0,0,1,1.07767-8.01565,12.055,12.055,0,0,1,4.8833-6.6005A15.00213,15.00213,0,0,1,460.724,73.628Zm0,6.73549q-4.78374,0-6.12971,4.24377a20.96852,20.96852,0,0,0-.67383,5.99473,20.54126,20.54126,0,0,0,.67383,5.99472,6.5004,6.5004,0,0,0,12.19192,0,20.587,20.587,0,0,0,.67271-5.99472,21.0155,21.0155,0,0,0-.67271-5.99473Q465.438,80.36351,460.724,80.36351Z" transform="translate(-1.8144 -1.47627)"/><path class="cls-1" d="M478.00056,61.03281H488.171a.59571.59571,0,0,1,.67383.67327V97.27a3.16744,3.16744,0,0,0,.67383,2.29035,2.947,2.947,0,0,0,2.15536.67327h1.48152a.59611.59611,0,0,1,.67383.67383v5.45588a.59526.59526,0,0,1-.67383.67327h-2.963q-4.64874,0-6.76979-2.35728t-2.12161-7.1399V68.03771a.35743.35743,0,0,0-.40385-.40441h-2.89668a.59526.59526,0,0,1-.67383-.67326v-5.254A.59571.59571,0,0,1,478.00056,61.03281Z" transform="translate(-1.8144 -1.47627)"/><path class="cls-1" d="M511.5773,73.628A14.88494,14.88494,0,0,1,520.03,75.98586a12.06028,12.06028,0,0,1,4.8833,6.6005A26.05919,26.05919,0,0,1,525.991,90.602a26.04281,26.04281,0,0,1-1.07768,8.01508,12.05757,12.05757,0,0,1-4.8833,6.60106,16.45439,16.45439,0,0,1-16.97285,0,12.05233,12.05233,0,0,1-4.8833-6.60106,26.0085,26.0085,0,0,1-1.07768-8.01508,26.02484,26.02484,0,0,1,1.07768-8.01565,12.055,12.055,0,0,1,4.8833-6.6005A15.00207,15.00207,0,0,1,511.5773,73.628Zm0,6.73549q-4.78374,0-6.12971,4.24377a20.96888,20.96888,0,0,0-.67383,5.99473,20.54161,20.54161,0,0,0,.67383,5.99472,6.50041,6.50041,0,0,0,12.19193,0,20.587,20.587,0,0,0,.67271-5.99472,21.0155,21.0155,0,0,0-.67271-5.99473Q516.29131,80.36351,511.5773,80.36351Z" transform="translate(-1.8144 -1.47627)"/><path class="cls-1" d="M542.76245,73.628q5.99361,0,8.42006,3.83937h.06637V75.04262a.59571.59571,0,0,1,.67383-.67327h10.17157a.59536.59536,0,0,1,.6727.67327v5.254a.59491.59491,0,0,1-.6727.67327H559.1976a.357.357,0,0,0-.40385.40441v23.43949q0,7.07268-3.87311,10.97926-3.87425,3.90544-11.283,3.90686a17.81178,17.81178,0,0,1-6.70118-1.31391,12.34405,12.34405,0,0,1-5.08578-3.5362.62009.62009,0,0,1,.06749-.94269l3.97436-3.97379a.60715.60715,0,0,1,1.01018,0,9.99209,9.99209,0,0,0,7.0724,3.03054q7.27432,0,7.27376-7.74566V102.187h-.06637q-2.42476,3.773-8.42006,3.77187a11.62345,11.62345,0,0,1-6.9374-2.02036,11.34033,11.34033,0,0,1-4.10935-5.8603,27.05457,27.05457,0,0,1-1.07768-8.2845,26.80531,26.80531,0,0,1,1.07768-8.21757Q534.27546,73.62944,542.76245,73.628Zm1.954,6.73549a5.50208,5.50208,0,0,0-5.72587,4.10878,16.49981,16.49981,0,0,0-.74132,5.32146,15.75466,15.75466,0,0,0,.74132,5.32089,6.05894,6.05894,0,0,0,11.5181,0,15.7861,15.7861,0,0,0,.7402-5.32089,16.53324,16.53324,0,0,0-.7402-5.32146A5.54681,5.54681,0,0,0,544.71645,80.36351Z" transform="translate(-1.8144 -1.47627)"/><path class="cls-1" d="M585.82343,74.36935h12.12331a.59571.59571,0,0,1,.67383.67327v5.254a.59527.59527,0,0,1-.67383.67327h-1.75151a.529.529,0,0,0-.53884.40441l-10.70928,27.48134q-2.22228,5.72361-4.54581,7.91384a8.91511,8.91511,0,0,1-6.36595,2.1891h-2.08786a.59571.59571,0,0,1-.67383-.67326v-5.38839a.59566.59566,0,0,1,.67383-.67383h1.21267a4.59309,4.59309,0,0,0,2.9968-.90894,6.6726,6.6726,0,0,0,1.85275-2.93043l.94268-2.76169L568.84945,81.30676a.47915.47915,0,0,0-.47134-.33692h-1.819a.59527.59527,0,0,1-.67383-.67327v-5.254a.59571.59571,0,0,1,.67383-.67327h12.59578a.59616.59616,0,0,1,.67383.67327v5.254a.59571.59571,0,0,1-.67383.67327h-2.15536c-.315,0-.42747.158-.33747.47135l5.79336,15.29h.135l5.72474-15.29c.08887-.3133-.02363-.47135-.33635-.47135h-2.15536a.59482.59482,0,0,1-.67383-.67327v-5.254A.59526.59526,0,0,1,585.82343,74.36935Z" transform="translate(-1.8144 -1.47627)"/><path class="cls-1" d="M267.98013,61.03281h36.23718a.59571.59571,0,0,1,.67383.67327V72.48285a.59566.59566,0,0,1-.67383.67383h-5.79223a.59521.59521,0,0,1-.67383-.67383V68.44156a.357.357,0,0,0-.40385-.40385h-6.86991a.35738.35738,0,0,0-.405.40385v31.3882a.35738.35738,0,0,0,.405.40385h3.50189a.59611.59611,0,0,1,.67383.67383v5.25339a.59566.59566,0,0,1-.67383.67383H278.21806a.59566.59566,0,0,1-.67383-.67383v-5.25339a.59611.59611,0,0,1,.67383-.67383h3.503a.357.357,0,0,0,.40385-.40385V68.44156a.357.357,0,0,0-.40385-.40385H274.85a.357.357,0,0,0-.40385.40385v4.04129a.59566.59566,0,0,1-.67383.67383h-5.79223a.59566.59566,0,0,1-.67383-.67383V61.70608A.59571.59571,0,0,1,267.98013,61.03281Z" transform="translate(-1.8144 -1.47627)"/><path class="cls-1" d="M318.75966,73.628a14.70437,14.70437,0,0,1,8.48755,2.391,12.2853,12.2853,0,0,1,4.84955,6.56731,33.44119,33.44119,0,0,1,1.07768,9.76659q0,.67411-.74133.67383H312.42859a.35658.35658,0,0,0-.40385.40385,7.16676,7.16676,0,0,0,.47134,2.49227q1.68232,4.91789,7.27376,4.917a9.7994,9.7994,0,0,0,7.61124-3.0986q.53827-.53827,1.01018-.13443l3.97436,3.50245a.617.617,0,0,1,.06749.94325q-4.71624,5.52366-13.336,5.52282a15.09115,15.09115,0,0,1-8.6563-2.391,12.21616,12.21616,0,0,1-4.88329-6.63424,25.92262,25.92262,0,0,1-1.144-7.94815,26.42474,26.42474,0,0,1,1.07768-8.01565,12.055,12.055,0,0,1,4.88329-6.6005A14.7614,14.7614,0,0,1,318.75966,73.628Zm.06749,6.39914q-4.98453,0-6.39856,4.17571a8.70452,8.70452,0,0,0-.40385,2.76169.357.357,0,0,0,.40385.40441h12.72964a.35777.35777,0,0,0,.405-.40441,8.70376,8.70376,0,0,0-.405-2.76169,5.85613,5.85613,0,0,0-2.35672-3.06429A7.04943,7.04943,0,0,0,318.82715,80.02716Z" transform="translate(-1.8144 -1.47627)"/><path class="cls-1" d="M352.60526,73.628A22.15916,22.15916,0,0,1,363.787,76.18779a.91206.91206,0,0,1,.53884.87575v7.40875a.59611.59611,0,0,1-.67383.67383h-5.72586a.59487.59487,0,0,1-.67271-.67383V81.50868a.56868.56868,0,0,0-.33747-.47134,9.599,9.599,0,0,0-4.10823-.67383q-5.25452,0-6.66855,4.24377a20.13436,20.13436,0,0,0-.67383,5.99473,20.43516,20.43516,0,0,0,.67383,6.06165q1.414,4.17713,6.66855,4.17628a9.93823,9.93823,0,0,0,4.10823-.60633.47666.47666,0,0,0,.33747-.47135v-3.0311a.59492.59492,0,0,1,.67271-.67327H363.652a.59616.59616,0,0,1,.67383.67327V104.208a.91077.91077,0,0,1-.53884.87519,23.8665,23.8665,0,0,1-11.18174,2.49227q-10.97983,0-13.80732-8.75585a26.83037,26.83037,0,0,1-1.01019-8.21757,26.00394,26.00394,0,0,1,1.01019-8.01565,12.1171,12.1171,0,0,1,5.01716-6.63424A15.87681,15.87681,0,0,1,352.60526,73.628Z" transform="translate(-1.8144 -1.47627)"/><path class="cls-1" d="M369.58486,61.03281h10.17157a.59536.59536,0,0,1,.6727.67327V77.39989h.0675q2.62726-3.7713,8.42006-3.77187a10.44856,10.44856,0,0,1,8.11633,3.368,12.41373,12.41373,0,0,1,3.06429,8.68891v14.1448a.35738.35738,0,0,0,.405.40385h2.76057a.59611.59611,0,0,1,.67383.67383v5.25339a.59566.59566,0,0,1-.67383.67383H389.253a.59566.59566,0,0,1-.67383-.67383v-5.25339a.59611.59611,0,0,1,.67383-.67383h2.89668a.357.357,0,0,0,.40385-.40385V87.43591a7.96752,7.96752,0,0,0-1.549-5.15272,6.22417,6.22417,0,0,0-8.99152,0,7.84517,7.84517,0,0,0-1.5839,5.15272V99.82976a.35738.35738,0,0,0,.405.40385h2.89555a.59611.59611,0,0,1,.67383.67383v5.25339a.59566.59566,0,0,1-.67383.67383h-14.1448a.59486.59486,0,0,1-.6727-.67383v-5.25339a.59531.59531,0,0,1,.6727-.67383h2.89668a.35659.35659,0,0,0,.40385-.40385v-31.792a.357.357,0,0,0-.40385-.40441h-2.89668a.59447.59447,0,0,1-.6727-.67326v-5.254A.59491.59491,0,0,1,369.58486,61.03281Z" transform="translate(-1.8144 -1.47627)"/><path class="cls-1" d="M434.799,2.2176h15.22248a.59571.59571,0,0,1,.67383.67326v5.254a.59527.59527,0,0,1-.67383.67327h-3.233a.35743.35743,0,0,0-.40385.40441V41.01455a.357.357,0,0,0,.40385.40384h3.233a.59611.59611,0,0,1,.67383.67383v5.2534a.59566.59566,0,0,1-.67383.67383H434.799a.59486.59486,0,0,1-.6727-.67383v-5.2534a.59531.59531,0,0,1,.6727-.67383h3.233a.35737.35737,0,0,0,.405-.40384V9.2225a.35777.35777,0,0,0-.405-.40441h-3.233a.59447.59447,0,0,1-.6727-.67327v-5.254A.59491.59491,0,0,1,434.799,2.2176Z" transform="translate(-1.8144 -1.47627)"/><path class="cls-1" d="M474.97,14.81281a10.53033,10.53033,0,0,1,8.18382,3.368,12.4137,12.4137,0,0,1,3.0643,8.68892v14.1448a.35737.35737,0,0,0,.405.40384h2.76056a.59611.59611,0,0,1,.67383.67383v5.2534a.59566.59566,0,0,1-.67383.67383h-14.0098a.59566.59566,0,0,1-.67383-.67383v-5.2534a.59611.59611,0,0,1,.67383-.67383h2.89668a.357.357,0,0,0,.40384-.40384V28.62069a7.96751,7.96751,0,0,0-1.549-5.15271,6.22414,6.22414,0,0,0-8.99152,0A7.84521,7.84521,0,0,0,466.55,28.62069V41.01455a.35737.35737,0,0,0,.405.40384h2.89556a.59611.59611,0,0,1,.67383.67383v5.2534a.59566.59566,0,0,1-.67383.67383h-14.1448a.59486.59486,0,0,1-.6727-.67383v-5.2534a.59531.59531,0,0,1,.6727-.67383h2.89668a.35658.35658,0,0,0,.40385-.40384V22.559a.357.357,0,0,0-.40385-.40441h-2.89668a.59447.59447,0,0,1-.6727-.67327v-5.254a.59491.59491,0,0,1,.6727-.67326h10.17157a.59536.59536,0,0,1,.6727.67326v2.35728h.0675Q469.24473,14.81338,474.97,14.81281Z" transform="translate(-1.8144 -1.47627)"/><path class="cls-1" d="M506.93589,14.81281A27.28512,27.28512,0,0,1,518.319,17.10316a.96608.96608,0,0,1,.53883.94268v6.73605a.59526.59526,0,0,1-.67383.67327h-5.45588a.59447.59447,0,0,1-.6727-.67327V22.28962a.5248.5248,0,0,0-.33748-.53884,12.78248,12.78248,0,0,0-4.84955-.74132q-5.45532,0-5.45588,3.30052a2.761,2.761,0,0,0,1.17892,2.391,9.60834,9.60834,0,0,0,4.277,1.17892l3.57051.40441q5.45532.60577,7.8801,3.06429a9.13061,9.13061,0,0,1,2.42533,6.7023,9.45675,9.45675,0,0,1-3.60426,7.88066q-3.60424,2.82891-10.33917,2.82862a27.34318,27.34318,0,0,1-12.12331-2.5592.79046.79046,0,0,1-.47135-.80826V38.11787a.59492.59492,0,0,1,.67271-.67327h5.72586a.59616.59616,0,0,1,.67383.67327V41.082a.47567.47567,0,0,0,.33636.47135,15.92334,15.92334,0,0,0,5.65724.87575q6.06277,0,6.06222-3.77243a2.96016,2.96016,0,0,0-1.21155-2.55921,9.72,9.72,0,0,0-4.3782-1.21267L504.1742,34.481q-10.03657-1.14489-10.03545-9.63217A8.935,8.935,0,0,1,497.473,17.507Q500.80562,14.81393,506.93589,14.81281Z" transform="translate(-1.8144 -1.47627)"/><path class="cls-1" d="M527.74924,5.58506h6.19608a.59611.59611,0,0,1,.67383.67383v8.89084a.35743.35743,0,0,0,.40385.40441h4.31183a.59536.59536,0,0,1,.67271.67326v5.254a.59492.59492,0,0,1-.67271.67327H535.023a.35743.35743,0,0,0-.40385.40441V38.38729a3.18055,3.18055,0,0,0,.70758,2.35784,3.30232,3.30232,0,0,0,2.32409.67326h1.684a.59577.59577,0,0,1,.67271.67383v5.45589a.59492.59492,0,0,1-.67271.67326h-3.23416q-4.782,0-6.90366-2.32353-2.121-2.32353-2.1216-7.17364V22.559a.35743.35743,0,0,0-.40385-.40441H524.5162a.59482.59482,0,0,1-.67383-.67327v-5.254a.59526.59526,0,0,1,.67383-.67326h2.15536a.35743.35743,0,0,0,.40385-.40441V6.25889A.59566.59566,0,0,1,527.74924,5.58506Z" transform="translate(-1.8144 -1.47627)"/><path class="cls-1" d="M545.13382,15.55414h10.17156a.59536.59536,0,0,1,.67271.67326V41.01455a.35737.35737,0,0,0,.405.40384h2.89555a.59611.59611,0,0,1,.67383.67383v5.2534a.59566.59566,0,0,1-.67383.67383H545.13382a.59487.59487,0,0,1-.67271-.67383v-5.2534a.59532.59532,0,0,1,.67271-.67383h2.89668a.35657.35657,0,0,0,.40384-.40384V22.559a.357.357,0,0,0-.40384-.40441h-2.89668a.59447.59447,0,0,1-.67271-.67327v-5.254A.59491.59491,0,0,1,545.13382,15.55414ZM549.10817,2.2176h6.19721a.59536.59536,0,0,1,.67271.67326v5.8603a.59492.59492,0,0,1-.67271.67326h-6.19721a.59526.59526,0,0,1-.67383-.67326V2.89086A.59571.59571,0,0,1,549.10817,2.2176Z" transform="translate(-1.8144 -1.47627)"/><path class="cls-1" d="M565.95279,5.58506h6.19608a.59611.59611,0,0,1,.67383.67383v8.89084a.35743.35743,0,0,0,.40385.40441h4.31183a.59536.59536,0,0,1,.67271.67326v5.254a.59492.59492,0,0,1-.67271.67327h-4.31183a.35743.35743,0,0,0-.40385.40441V38.38729a3.18059,3.18059,0,0,0,.70758,2.35784,3.30232,3.30232,0,0,0,2.32409.67326h1.684a.59577.59577,0,0,1,.67271.67383v5.45589a.59492.59492,0,0,1-.67271.67326h-3.23415q-4.78206,0-6.90366-2.32353-2.121-2.32353-2.12161-7.17364V22.559a.35743.35743,0,0,0-.40385-.40441h-2.15535a.59482.59482,0,0,1-.67383-.67327v-5.254a.59526.59526,0,0,1,.67383-.67326h2.15535a.35743.35743,0,0,0,.40385-.40441V6.25889A.59566.59566,0,0,1,565.95279,5.58506Z" transform="translate(-1.8144 -1.47627)"/><path class="cls-1" d="M602.37221,15.55414h10.23794a.59571.59571,0,0,1,.67383.67326V41.01455a.357.357,0,0,0,.40385.40384h2.89668a.59611.59611,0,0,1,.67382.67383v5.2534a.59566.59566,0,0,1-.67382.67383H606.41407a.59521.59521,0,0,1-.67383-.67383V44.98834h-.0675a10.00889,10.00889,0,0,1-8.35144,3.77187,10.312,10.312,0,0,1-8.11633-3.36746,12.57583,12.57583,0,0,1-2.99792-8.68891V22.559a.35743.35743,0,0,0-.40385-.40441h-2.89668a.59527.59527,0,0,1-.67383-.67327v-5.254a.59571.59571,0,0,1,.67383-.67326H593.077a.59571.59571,0,0,1,.67383.67326V34.95233a8.08926,8.08926,0,0,0,1.51528,5.15272,6.10743,6.10743,0,0,0,8.8914,0,7.74548,7.74548,0,0,0,1.58277-5.08522V22.559a.35743.35743,0,0,0-.40385-.40441h-2.96418a.59447.59447,0,0,1-.6727-.67327v-5.254A.59491.59491,0,0,1,602.37221,15.55414Z" transform="translate(-1.8144 -1.47627)"/><path class="cls-1" d="M623.34643,5.58506h6.19608a.59611.59611,0,0,1,.67383.67383v8.89084a.35743.35743,0,0,0,.40385.40441H634.932a.59536.59536,0,0,1,.6727.67326v5.254a.59491.59491,0,0,1-.6727.67327h-4.31183a.35743.35743,0,0,0-.40385.40441V38.38729a3.18055,3.18055,0,0,0,.70758,2.35784,3.30232,3.30232,0,0,0,2.32409.67326h1.684a.59576.59576,0,0,1,.6727.67383v5.45589a.59491.59491,0,0,1-.6727.67326h-3.23416q-4.782,0-6.90366-2.32353-2.121-2.32353-2.1216-7.17364V22.559a.35743.35743,0,0,0-.40385-.40441h-2.15536a.59482.59482,0,0,1-.67383-.67327v-5.254a.59526.59526,0,0,1,.67383-.67326h2.15536a.35744.35744,0,0,0,.40385-.40441V6.25889A.59566.59566,0,0,1,623.34643,5.58506Z" transform="translate(-1.8144 -1.47627)"/><path class="cls-1" d="M653.99949,14.81281a14.70434,14.70434,0,0,1,8.48755,2.391,12.28536,12.28536,0,0,1,4.84955,6.5673,33.44131,33.44131,0,0,1,1.07768,9.7666q0,.6741-.74133.67383H647.66841a.35658.35658,0,0,0-.40385.40384,7.16678,7.16678,0,0,0,.47135,2.49227q1.68232,4.9179,7.27376,4.917a9.7994,9.7994,0,0,0,7.61124-3.09861q.53828-.53827,1.01018-.13442l3.97436,3.50245a.617.617,0,0,1,.06749.94325q-4.71624,5.52366-13.336,5.52281a15.09112,15.09112,0,0,1-8.65629-2.391,12.21611,12.21611,0,0,1-4.88329-6.63424,25.92265,25.92265,0,0,1-1.144-7.94816,26.42517,26.42517,0,0,1,1.07767-8.01565,12.055,12.055,0,0,1,4.8833-6.60049A14.7613,14.7613,0,0,1,653.99949,14.81281Zm.06749,6.39913q-4.98453,0-6.39857,4.17572a8.70476,8.70476,0,0,0-.40385,2.76169.357.357,0,0,0,.40385.40441h12.72965a.35777.35777,0,0,0,.405-.40441,8.70372,8.70372,0,0,0-.405-2.76169,5.85609,5.85609,0,0,0-2.35672-3.06429A7.04938,7.04938,0,0,0,654.067,21.21194Z" transform="translate(-1.8144 -1.47627)"/><path class="cls-1" d="M218.71857,1.47627a25.49074,25.49074,0,0,1,7.98134,1.24642,17.90758,17.90758,0,0,1,6.096,3.19928,1.213,1.213,0,0,1,.47134.94325V14.9478a.59526.59526,0,0,1-.67382.67327h-6.06222a.59447.59447,0,0,1-.67271-.67327V10.97344a.64367.64367,0,0,0-.27-.53883,12.63049,12.63049,0,0,0-7.0724-1.81844q-7.40931,0-9.49661,6.12971-1.07823,3.368-1.07768,10.50735,0,7.61181.8752,10.37293a8.61419,8.61419,0,0,0,3.19928,4.47889,10.73029,10.73029,0,0,0,6.16346,1.51583q4.98285,0,7.47625-1.61652a1.221,1.221,0,0,0,.67383-1.07824V29.96779a.35738.35738,0,0,0-.405-.40385h-7.27376a.59521.59521,0,0,1-.67383-.67383V23.50173a.59526.59526,0,0,1,.67383-.67327h14.68364a.59616.59616,0,0,1,.67383.67327V42.833a1.87812,1.87812,0,0,1-.87632,1.61651q-5.99527,4.31127-15.08748,4.31071-13.5379,0-17.04148-10.70928-1.14573-3.43551-1.14517-12.7977,0-8.82334,1.28016-12.66327Q204.70708,1.47683,218.71857,1.47627Z" transform="translate(-1.8144 -1.47627)"/><path class="cls-1" d="M254.30105,14.81281a14.70432,14.70432,0,0,1,8.48755,2.391,12.28531,12.28531,0,0,1,4.84955,6.5673,33.44131,33.44131,0,0,1,1.07768,9.7666q0,.6741-.74133.67383H247.97a.35658.35658,0,0,0-.40384.40384,7.16676,7.16676,0,0,0,.47134,2.49227q1.68232,4.9179,7.27376,4.917a9.79938,9.79938,0,0,0,7.61124-3.09861q.53827-.53827,1.01018-.13442l3.97436,3.50245a.617.617,0,0,1,.06749.94325q-4.71624,5.52366-13.336,5.52281a15.09115,15.09115,0,0,1-8.6563-2.391,12.21616,12.21616,0,0,1-4.88329-6.63424,25.92265,25.92265,0,0,1-1.144-7.94816,26.42483,26.42483,0,0,1,1.07768-8.01565,12.055,12.055,0,0,1,4.88329-6.60049A14.76133,14.76133,0,0,1,254.30105,14.81281Zm.06749,6.39913q-4.98453,0-6.39857,4.17572a8.70477,8.70477,0,0,0-.40384,2.76169.357.357,0,0,0,.40384.40441h12.72965a.35777.35777,0,0,0,.405-.40441,8.70372,8.70372,0,0,0-.405-2.76169,5.85609,5.85609,0,0,0-2.35672-3.06429A7.04936,7.04936,0,0,0,254.36854,21.21194Z" transform="translate(-1.8144 -1.47627)"/><path class="cls-1" d="M287.81142,14.81281a14.88491,14.88491,0,0,1,8.45268,2.35784,12.06032,12.06032,0,0,1,4.8833,6.60049,26.0593,26.0593,0,0,1,1.07767,8.01565,26.0429,26.0429,0,0,1-1.07767,8.01509,12.05768,12.05768,0,0,1-4.8833,6.60105,16.45441,16.45441,0,0,1-16.97286,0,12.05227,12.05227,0,0,1-4.88329-6.60105,26.00857,26.00857,0,0,1-1.07768-8.01509,26.02493,26.02493,0,0,1,1.07768-8.01565,12.05491,12.05491,0,0,1,4.88329-6.60049A15.00205,15.00205,0,0,1,287.81142,14.81281Zm0,6.73548q-4.78374,0-6.12971,4.24378a20.96845,20.96845,0,0,0-.67383,5.99472,20.54126,20.54126,0,0,0,.67383,5.99472,6.5004,6.5004,0,0,0,12.19192,0,20.587,20.587,0,0,0,.67271-5.99472,21.01542,21.01542,0,0,0-.67271-5.99472Q292.52542,21.5483,287.81142,21.54829Z" transform="translate(-1.8144 -1.47627)"/><path class="cls-1" d="M325.57063,15.08223a14.88174,14.88174,0,0,1,3.16666.33691c.44772.09056.6727.31442.6727.67383V21.9527q0,.87576-.80769.67327a26.36714,26.36714,0,0,0-3.97436-.53884q-7.27433,0-7.27489,8.35257V41.01455a.35738.35738,0,0,0,.405.40384h3.16553a.59656.59656,0,0,1,.67383.67383v5.2534a.59611.59611,0,0,1-.67383.67383H306.50878a.59486.59486,0,0,1-.6727-.67383v-5.2534a.59531.59531,0,0,1,.6727-.67383h2.89668a.35657.35657,0,0,0,.40385-.40384V22.559a.357.357,0,0,0-.40385-.40441h-2.89668a.59447.59447,0,0,1-.6727-.67327v-5.254a.59491.59491,0,0,1,.6727-.67326h10.17157a.59536.59536,0,0,1,.6727.67326v3.368h.0675A8.96569,8.96569,0,0,1,325.57063,15.08223Z" transform="translate(-1.8144 -1.47627)"/><path class="cls-1" d="M344.84105,14.81281q5.99359,0,8.42006,3.83937h.06637V16.2274a.59571.59571,0,0,1,.67383-.67326h10.17156a.59536.59536,0,0,1,.67271.67326v5.254a.59492.59492,0,0,1-.67271.67327h-2.89668a.357.357,0,0,0-.40385.40441V45.99852q0,7.07268-3.87311,10.97926-3.87424,3.90546-11.283,3.90687a17.81154,17.81154,0,0,1-6.70117-1.31392,12.34417,12.34417,0,0,1-5.08579-3.53619.62009.62009,0,0,1,.0675-.94269l3.97436-3.9738a.60716.60716,0,0,1,1.01018,0,9.992,9.992,0,0,0,7.0724,3.03055q7.27433,0,7.27376-7.74567v-3.0311h-.06637q-2.42478,3.773-8.42006,3.77187a11.62342,11.62342,0,0,1-6.93741-2.02037,11.34036,11.34036,0,0,1-4.10935-5.86029,27.055,27.055,0,0,1-1.07767-8.28451,26.80573,26.80573,0,0,1,1.07767-8.21757Q336.35406,14.81422,344.84105,14.81281Zm1.954,6.73548a5.50207,5.50207,0,0,0-5.72586,4.10879,16.49944,16.49944,0,0,0-.74133,5.32145,15.7544,15.7544,0,0,0,.74133,5.3209,6.05894,6.05894,0,0,0,11.5181,0,15.78612,15.78612,0,0,0,.7402-5.3209,16.53318,16.53318,0,0,0-.7402-5.32145A5.54683,5.54683,0,0,0,346.795,21.54829Z" transform="translate(-1.8144 -1.47627)"/><path class="cls-1" d="M369.53876,15.55414h10.17157a.59536.59536,0,0,1,.6727.67326V41.01455a.35737.35737,0,0,0,.405.40384h2.89556a.59611.59611,0,0,1,.67383.67383v5.2534a.59566.59566,0,0,1-.67383.67383h-14.1448a.59486.59486,0,0,1-.6727-.67383v-5.2534a.59531.59531,0,0,1,.6727-.67383h2.89668a.35658.35658,0,0,0,.40385-.40384V22.559a.357.357,0,0,0-.40385-.40441h-2.89668a.59447.59447,0,0,1-.6727-.67327v-5.254A.59491.59491,0,0,1,369.53876,15.55414ZM373.51312,2.2176h6.19721a.59536.59536,0,0,1,.6727.67326v5.8603a.59491.59491,0,0,1-.6727.67326h-6.19721a.59526.59526,0,0,1-.67383-.67326V2.89086A.59571.59571,0,0,1,373.51312,2.2176Z" transform="translate(-1.8144 -1.47627)"/><path class="cls-1" d="M401.84321,14.81281q7.34182,0,10.40668,2.62726,3.06429,2.62643,3.06429,8.68892V41.01455a.35737.35737,0,0,0,.405.40384h2.89556a.59611.59611,0,0,1,.67383.67383v5.2534a.59566.59566,0,0,1-.67383.67383h-9.6316a.59566.59566,0,0,1-.67383-.67383V44.98834h-.0675q-2.62557,3.773-9.02527,3.77187a11.72168,11.72168,0,0,1-7.78-2.5592q-3.0643-2.55892-3.0643-7.40931,0-5.18619,3.40177-7.77942,3.4001-2.59266,9.53036-2.59351h6.46607a.35738.35738,0,0,0,.405-.40385V26.73476a5.647,5.647,0,0,0-1.4489-4.31071q-1.44947-1.34654-5.21965-1.3471a15.52872,15.52872,0,0,0-3.503.40441.41414.41414,0,0,0-.33636.47134v2.89612a.59566.59566,0,0,1-.67383.67383h-5.85973a.59521.59521,0,0,1-.67383-.67383V17.97891a.91035.91035,0,0,1,.53884-.87575A24.81457,24.81457,0,0,1,401.84321,14.81281Zm5.92723,19.26377H402.517q-6.93854,0-6.93741,4.4457,0,4.10963,5.52338,4.10878,7.07184,0,7.0724-5.52338V34.481A.35777.35777,0,0,0,407.77044,34.07658Z" transform="translate(-1.8144 -1.47627)"/><path class="cls-1" d="M216.86109,74.13564a14.72086,14.72086,0,0,1,8.35955,2.33187,11.9274,11.9274,0,0,1,4.82949,6.52777,25.77179,25.77179,0,0,1,1.06581,7.92733,25.75561,25.75561,0,0,1-1.06581,7.92677,11.92483,11.92483,0,0,1-4.82949,6.52833,16.27315,16.27315,0,0,1-16.78585,0,11.91958,11.91958,0,0,1-4.82949-6.52833,25.72193,25.72193,0,0,1-1.0658-7.92677,25.73807,25.73807,0,0,1,1.0658-7.92733,11.92215,11.92215,0,0,1,4.82949-6.52777A14.83671,14.83671,0,0,1,216.86109,74.13564Zm0,6.66128q-4.731,0-6.06217,4.197a20.73749,20.73749,0,0,0-.66641,5.92867,20.31508,20.31508,0,0,0,.66641,5.92867,6.42879,6.42879,0,0,0,12.0576,0,20.36048,20.36048,0,0,0,.66529-5.92867,20.78411,20.78411,0,0,0-.66529-5.92867Q221.52314,80.79691,216.86109,80.79692Z" transform="translate(-1.8144 -1.47627)"/><path class="cls-1" d="M249.24239,61.6792h2.9304a.58915.58915,0,0,1,.6664.66585v5.329a.5891.5891,0,0,1-.6664.66641h-2.06486q-2.4648,0-3.26416.766-.79935.76682-.79991,3.164v2.19836a.35383.35383,0,0,0,.40051.39995h5.72842a.58915.58915,0,0,1,.6664.66585v5.19607a.5887.5887,0,0,1-.6664.66585h-5.72842a.35383.35383,0,0,0-.40051.4v18.25217a.35344.35344,0,0,0,.40051.3994h3.53006a.58954.58954,0,0,1,.66641.6664V106.31a.5891.5891,0,0,1-.66641.6664H235.31907a.58831.58831,0,0,1-.66529-.6664v-5.19552a.58875.58875,0,0,1,.66529-.6664h2.86477a.35266.35266,0,0,0,.3994-.3994V81.79652a.353.353,0,0,0-.3994-.4h-2.13161a.5887.5887,0,0,1-.6664-.66585V75.53465a.58915.58915,0,0,1,.6664-.66585h2.13161a.353.353,0,0,0,.3994-.39995V72.404Q238.58324,61.67949,249.24239,61.6792Z" transform="translate(-1.8144 -1.47627)"/><path class="cls-1" d="M595.38616,100.557h-.01429a3.242,3.242,0,1,0,.01429,0Zm0,6.0883a2.7914,2.7914,0,0,1-.01429-5.57474h.01429a2.7918,2.7918,0,0,1,0,5.57474Z" transform="translate(-1.8144 -1.47627)"/><path class="cls-1" d="M595.97205,103.96694v-.02873a.9139.9139,0,0,0,.71679-.893.88112.88112,0,0,0-.337-.76126,1.92852,1.92852,0,0,0-1.14093-.27742,6.40409,6.40409,0,0,0-1.03945.08817v3.6728h.58588v-1.58157h.40956a.68684.68684,0,0,1,.7894.64559,2.70949,2.70949,0,0,0,.24921.936H596.82a3.00772,3.00772,0,0,1-.23351-.90752C596.51252,104.31928,596.29358,104.02637,595.97205,103.96694Zm-.7908-.23351h-.42386v-1.24472a2.8974,2.8974,0,0,1,.42386-.02971c.65876,0,.89312.323.89312.64562C596.07437,103.55707,595.66481,103.73343,595.18125,103.73343Z" transform="translate(-1.8144 -1.47627)"/><path class="cls-1" d="M152.06625,102.33664h-.01317a2.9852,2.9852,0,1,0,.01317,0Zm0,5.60611a2.57032,2.57032,0,0,1-.01317-5.13323h.01317a2.5707,2.5707,0,0,1,0,5.13323Z" transform="translate(-1.8144 -1.47627)"/><path class="cls-1" d="M152.60573,105.4765V105.45a.84152.84152,0,0,0,.66-.82229.8113.8113,0,0,0-.31027-.701,1.77577,1.77577,0,0,0-1.05056-.25544,5.897,5.897,0,0,0-.95713.08118v3.38191h.53948v-1.4563h.37712a.63244.63244,0,0,1,.72688.59446,2.495,2.495,0,0,0,.22947.86184h.56581a2.769,2.769,0,0,1-.215-.83564C153.10339,105.80093,152.90179,105.53122,152.60573,105.4765Zm-.72817-.215h-.39029v-1.14614a2.66738,2.66738,0,0,1,.39029-.02736c.60659,0,.82238.29739.82238.59449C152.69994,105.09909,152.32282,105.26148,151.87756,105.26148Z" transform="translate(-1.8144 -1.47627)"/></svg>